<svg width="20" height="20" viewBox="0 0 20 20" fill="none" xmlns="http://www.w3.org/2000/svg">
<path fillRule="evenodd" clipRule="evenodd" d="M11.1785 9.99996L14.756 6.42246C15.0819 6.09663 15.0819 5.56996 14.756 5.24413C14.4302 4.9183 13.9035 4.9183 13.5777 5.24413L10.0002 8.82163L6.42271 5.24413C6.09688 4.9183 5.57021 4.9183 5.24438 5.24413C4.91854 5.56996 4.91854 6.09663 5.24438 6.42246L8.82188 9.99996L5.24438 13.5775C4.91854 13.9033 4.91854 14.43 5.24438 14.7558C5.40688 14.9183 5.62021 15 5.83354 15C6.04688 15 6.26021 14.9183 6.42271 14.7558L10.0002 11.1783L13.5777 14.7558C13.7402 14.9183 13.9535 15 14.1669 15C14.3802 15 14.5935 14.9183 14.756 14.7558C15.0819 14.43 15.0819 13.9033 14.756 13.5775L11.1785 9.99996Z" fill="white" fill-opacity="0.6"/>
</svg>
