<svg width="24" height="24" viewBox="0 0 24 24" fill="none" xmlns="http://www.w3.org/2000/svg">
<path fillRule="evenodd" clipRule="evenodd" d="M1.12953 22.8695C1.12959 22.8696 1.12965 22.8696 1.1297 22.8697L1.12955 22.8695C1.12955 22.8695 1.12954 22.8695 1.12953 22.8695ZM8.39179 19.5926L9.91033 21.1124L8.48006 22.5439C6.54018 24.4853 3.39503 24.4854 1.45509 22.544C-0.484677 20.6025 -0.484623 17.4548 1.45525 15.5133L8.15256 8.81046L9.6711 10.3302L2.97379 17.0331C1.87254 18.1352 1.87253 19.9222 2.97379 21.0244C4.07513 22.1266 5.86033 22.1262 6.96151 21.0241L8.39179 19.5926ZM12.3137 15.7338L12.7942 15.213L14.2995 16.7196L11.439 19.5825L9.92043 18.0627L10.4699 17.5128L12.3137 15.7338ZM11.6671 8.26638L11.1865 8.78713L9.68121 7.28055L12.5418 4.41765L14.0603 5.93744L13.5108 6.48736L11.6671 8.26638ZM21.0069 6.96708C22.1082 5.86492 22.1082 4.07795 21.0069 2.97579C19.9056 1.87355 18.1204 1.87399 17.0192 2.97608L15.5889 4.40754L14.0704 2.88774L15.5007 1.45629C17.4406 -0.485266 20.5856 -0.485496 22.5255 1.45599C24.4654 3.39752 24.4654 6.54535 22.5255 8.48688L15.8282 15.1897L14.3096 13.6699L21.0069 6.96708Z" fill="url(#paint0_linear_258_151)"/>
<path fillRule="evenodd" clipRule="evenodd" d="M17.0189 21.0241L15.0197 19.0314L13.4973 20.5473L15.4997 22.5432L15.5004 22.5439C17.4402 24.4853 20.5854 24.4854 22.5253 22.544C24.4651 20.6025 24.465 17.4548 22.5252 15.5133L15.0386 7.94998L13.5201 9.46974L21.0066 17.0331L21.0074 17.0339C22.1079 18.1361 22.1076 19.9225 21.0066 21.0244C20.8042 21.227 20.5786 21.3924 20.3383 21.5205C19.2721 22.0892 17.9176 21.9233 17.0189 21.0241ZM2.97349 6.96708C1.87223 5.86492 1.87223 4.07795 2.97349 2.97579C4.07482 1.87355 5.86002 1.87399 6.96121 2.97608L8.94561 4.96212L10.464 3.44245L8.47975 1.45629C6.53979 -0.485266 3.39484 -0.485496 1.45495 1.456C-0.48498 3.39752 -0.484983 6.54536 1.45494 8.48688L9.03009 16.0683L10.5486 14.5485L2.97349 6.96708ZM11.992 7.94882L13.5477 6.43813L12.0003 4.96393L10.4762 6.48526L11.992 7.94882Z" fill="#64E5ED"/>
<path d="M9.82056 11.8306L11.9904 9.6589L14.1603 11.8306L11.9904 14.0022L9.82056 11.8306Z" fill="white"/>
<defs>
<linearGradient id="paint0_linear_258_151" x1="14.0215" y1="6.20943" x2="3.35691" y2="28.828" gradientUnits="userSpaceOnUse">
<stop offset="0.0561148" stop-color="#64E5ED"/>
<stop offset="1" stop-color="#2B6067"/>
</linearGradient>
</defs>
</svg>
