<svg width="132" height="24" viewBox="0 0 132 24" fill="none" xmlns="http://www.w3.org/2000/svg">
<path d="M128.332 3.90381H131.337V6.6345H128.332V3.90381ZM131.337 19.3493H128.332V7.99984H131.337V19.3493Z" fill="white"/>
<path d="M121.752 12.4371C122.306 12.3731 122.69 12.2878 122.925 12.1811C123.351 12.0104 123.564 11.7331 123.564 11.3491C123.564 10.8798 123.415 10.5384 123.074 10.3678C122.754 10.1971 122.285 10.1118 121.667 10.1118C120.963 10.1118 120.452 10.2824 120.175 10.6238C119.962 10.9011 119.834 11.2424 119.748 11.6691H116.892C116.956 10.6878 117.233 9.85576 117.723 9.21576C118.512 8.23442 119.855 7.72241 121.752 7.72241C123.01 7.72241 124.097 7.97841 125.077 8.46908C126.037 8.95975 126.527 9.89843 126.527 11.2638V16.4691C126.527 16.8318 126.527 17.2585 126.548 17.7705C126.57 18.1545 126.612 18.4318 126.719 18.5598C126.804 18.7092 126.953 18.8158 127.145 18.9012V19.3492H123.926C123.841 19.1145 123.777 18.9012 123.735 18.7092C123.713 18.4958 123.671 18.2825 123.649 18.0265C123.244 18.4532 122.775 18.8372 122.242 19.1572C121.603 19.5198 120.878 19.7118 120.068 19.7118C119.045 19.7118 118.192 19.4132 117.532 18.8158C116.849 18.2398 116.53 17.4078 116.53 16.3198C116.53 14.9331 117.063 13.9305 118.128 13.2905C118.725 12.9491 119.599 12.7144 120.75 12.5651L121.752 12.4371ZM123.543 13.8238C123.372 13.9518 123.18 14.0371 122.988 14.1011C122.797 14.1865 122.541 14.2505 122.2 14.3145L121.539 14.4425C120.899 14.5491 120.452 14.6985 120.196 14.8478C119.727 15.1251 119.493 15.5305 119.493 16.1065C119.493 16.6185 119.642 16.9811 119.919 17.1945C120.217 17.4292 120.537 17.5572 120.942 17.5572C121.582 17.5572 122.178 17.3651 122.711 16.9811C123.244 16.6185 123.521 15.9145 123.543 14.9331V13.8238Z" fill="white"/>
<path d="M115.947 19.319L113.716 21.5515L111.515 19.3491L113.746 17.1165L115.947 19.319Z" fill="#64E5ED"/>
<path d="M103.002 14.8478C103.002 15.4878 103.066 15.9785 103.215 16.2985C103.492 16.8745 104.025 17.1518 104.814 17.1518C105.816 17.1518 106.519 16.7465 106.903 15.9358C107.095 15.4878 107.18 14.9118 107.18 14.1651V7.99976H110.207V19.3492H107.308V17.7492L107.095 18.0478C106.988 18.2398 106.86 18.3892 106.711 18.5172C106.242 18.9225 105.794 19.2212 105.368 19.3705C104.92 19.5198 104.43 19.6052 103.833 19.6052C102.171 19.6052 101.02 18.9865 100.444 17.7918C100.124 17.1305 99.9539 16.1492 99.9539 14.8478V7.99976H103.002V14.8478Z" fill="white"/>
<path d="M96.1025 8.04257C96.5928 8.23457 97.0191 8.5759 97.4241 9.06657C97.7439 9.45058 97.957 9.94125 98.0636 10.5173C98.1489 10.9013 98.1702 11.4559 98.1702 12.2026L98.1489 19.3493H95.122V12.1173C95.122 11.6906 95.0367 11.3493 94.9088 11.0506C94.653 10.5173 94.1628 10.2612 93.438 10.2612C92.628 10.2612 92.0738 10.6026 91.7541 11.2853C91.6048 11.6479 91.5196 12.0746 91.5196 12.5866V19.3493H88.5354V12.5866C88.5354 11.9039 88.4501 11.4133 88.3222 11.1146C88.0664 10.5599 87.5761 10.3039 86.8514 10.3039C85.9987 10.3039 85.4445 10.5599 85.1461 11.1146C84.9969 11.4346 84.9116 11.9039 84.9116 12.5226V19.3493H81.8848V8.02123H84.7837V9.66391C85.1461 9.08791 85.4872 8.66124 85.8282 8.40523C86.3824 7.95723 87.1498 7.7439 88.0664 7.7439C88.919 7.7439 89.6225 7.9359 90.1554 8.3199C90.5817 8.68257 90.9227 9.13057 91.1359 9.68524C91.5196 9.02391 92.0099 8.53324 92.5854 8.21323C93.2035 7.89323 93.8857 7.7439 94.6317 7.7439C95.122 7.7439 95.6123 7.82923 96.1025 8.04257Z" fill="white"/>
<path d="M77.9911 8.23451C78.7371 8.57585 79.3553 9.13052 79.8456 9.89852C80.2932 10.5812 80.5916 11.3492 80.7195 12.2452C80.7835 12.7572 80.8261 13.5252 80.8048 14.4852H73.0458C73.0884 15.6372 73.4508 16.4266 74.1116 16.8959C74.5166 17.1732 75.0281 17.3226 75.6037 17.3226C76.2218 17.3226 76.6908 17.1306 77.0958 16.7892C77.2876 16.6186 77.4795 16.3412 77.6287 16.0212H80.6769C80.5916 16.6826 80.2292 17.3652 79.6111 18.0692C78.6519 19.1786 77.2876 19.7333 75.5397 19.7333C74.0902 19.7333 72.8113 19.2639 71.7242 18.3252C70.6157 17.4079 70.0615 15.8719 70.0615 13.7812C70.0615 11.8185 70.5518 10.3252 71.5536 9.25852C72.5555 8.21318 73.8345 7.70117 75.4331 7.70117C76.3711 7.70117 77.2237 7.87184 77.9911 8.23451ZM73.8345 10.7945C73.4508 11.2212 73.2163 11.7972 73.131 12.5439H77.7353C77.6713 11.7545 77.4582 11.1572 77.0318 10.7519C76.6055 10.3465 76.0726 10.1332 75.4331 10.1332C74.751 10.1332 74.2181 10.3679 73.8345 10.7945Z" fill="white"/>
<path d="M64.4059 7.97841C65.1093 8.27708 65.7062 8.83175 66.1538 9.62109V7.99975H69.0315V18.7732C69.0315 20.2452 68.7757 21.3332 68.2854 22.0799C67.4541 23.3599 65.8341 23.9999 63.4254 23.9999C61.9759 23.9999 60.7822 23.7225 59.8656 23.1465C58.949 22.5705 58.4374 21.7172 58.3522 20.5865H61.5709C61.6562 20.9278 61.8054 21.1838 61.9759 21.3332C62.2956 21.6105 62.8285 21.7385 63.5959 21.7385C64.6617 21.7385 65.3865 21.3972 65.7488 20.6718C65.9833 20.2238 66.0899 19.4345 66.0899 18.3678V17.6212C65.8128 18.1118 65.493 18.4745 65.1733 18.7305C64.5764 19.1785 63.8304 19.3918 62.8712 19.3918C61.4217 19.3918 60.2493 18.9012 59.3967 17.8558C58.5227 16.8318 58.0751 15.4451 58.0751 13.6958C58.0751 12.0104 58.5014 10.6024 59.3327 9.45042C60.1854 8.29842 61.379 7.72241 62.9138 7.72241C63.4893 7.72241 63.9796 7.80775 64.4059 7.97841ZM65.4078 16.1278C65.8767 15.5945 66.1325 14.7625 66.1325 13.6105C66.1325 12.5438 65.898 11.7331 65.4504 11.1571C64.9814 10.6024 64.3846 10.3251 63.6172 10.3251C62.5727 10.3251 61.848 10.8158 61.4643 11.7971C61.2512 12.3091 61.1446 12.9491 61.1446 13.7171C61.1446 14.3785 61.2725 14.9545 61.4856 15.4665C61.8906 16.4265 62.6154 16.9171 63.6385 16.9171C64.342 16.9171 64.9388 16.6611 65.4078 16.1278Z" fill="white"/>
<path d="M49.5631 14.8478C49.5631 15.4878 49.627 15.9785 49.7762 16.2985C50.0533 16.8745 50.5862 17.1518 51.3749 17.1518C52.3768 17.1518 53.0802 16.7465 53.4639 15.9358C53.6557 15.4878 53.741 14.9118 53.741 14.1651V7.99976H56.7679V19.3492H53.8689V17.7492L53.6557 18.0478C53.5492 18.2398 53.4213 18.3892 53.2721 18.5172C52.8031 18.9225 52.3555 19.2212 51.9292 19.3705C51.4815 19.5198 50.9912 19.6052 50.3944 19.6052C48.7318 19.6052 47.5807 18.9865 47.0052 17.7918C46.6854 17.1305 46.5149 16.1492 46.5149 14.8478V7.99976H49.5631V14.8478Z" fill="white"/>
<path d="M37.7185 13.888C37.7611 15.0613 37.8677 15.8933 38.1235 16.384C38.3366 16.8747 38.8482 17.1094 39.5943 17.1094C40.3616 17.1094 40.8732 16.8534 41.1077 16.32C41.2569 16 41.3209 15.4667 41.3209 14.7413V3.98926H44.5183V14.6773C44.5183 15.9787 44.3051 17.024 43.8575 17.792C43.0901 19.072 41.7045 19.7334 39.7222 19.7334C37.7398 19.7334 36.3969 19.2 35.7148 18.1547C35.0326 17.1094 34.6916 15.68 34.6916 13.888V13.5253H37.7185V13.888Z" fill="white"/>
<path fillRule="evenodd" clipRule="evenodd" d="M1.12953 22.8695C1.12959 22.8696 1.12965 22.8696 1.1297 22.8697L1.12955 22.8695C1.12955 22.8695 1.12954 22.8695 1.12953 22.8695ZM8.39179 19.5926L9.91033 21.1124L8.48006 22.5439C6.54018 24.4853 3.39503 24.4854 1.45509 22.544C-0.484677 20.6025 -0.484623 17.4548 1.45525 15.5133L8.15256 8.81046L9.6711 10.3302L2.97379 17.0331C1.87254 18.1352 1.87253 19.9222 2.97379 21.0244C4.07513 22.1266 5.86033 22.1262 6.96151 21.0241L8.39179 19.5926ZM12.3137 15.7338L12.7942 15.213L14.2995 16.7196L11.439 19.5825L9.92043 18.0627L10.4699 17.5128L12.3137 15.7338ZM11.6671 8.26638L11.1865 8.78713L9.68121 7.28055L12.5418 4.41765L14.0603 5.93744L13.5108 6.48736L11.6671 8.26638ZM21.0069 6.96708C22.1082 5.86492 22.1082 4.07795 21.0069 2.97579C19.9056 1.87355 18.1204 1.87399 17.0192 2.97608L15.5889 4.40754L14.0704 2.88774L15.5007 1.45629C17.4406 -0.485266 20.5856 -0.485496 22.5255 1.45599C24.4654 3.39752 24.4654 6.54535 22.5255 8.48688L15.8282 15.1897L14.3096 13.6699L21.0069 6.96708Z" fill="url(#paint0_linear_258_140)"/>
<path fillRule="evenodd" clipRule="evenodd" d="M17.0189 21.0241L15.0197 19.0314L13.4973 20.5473L15.4997 22.5432L15.5004 22.5439C17.4402 24.4853 20.5854 24.4854 22.5253 22.544C24.4651 20.6025 24.465 17.4548 22.5252 15.5133L15.0386 7.94998L13.5201 9.46974L21.0066 17.0331L21.0074 17.0339C22.1079 18.1361 22.1076 19.9225 21.0066 21.0244C20.8042 21.227 20.5786 21.3924 20.3383 21.5205C19.2721 22.0892 17.9176 21.9233 17.0189 21.0241ZM2.97349 6.96708C1.87223 5.86492 1.87223 4.07795 2.97349 2.97579C4.07482 1.87355 5.86002 1.87399 6.96121 2.97608L8.94561 4.96212L10.464 3.44245L8.47975 1.45629C6.53979 -0.485266 3.39484 -0.485496 1.45495 1.456C-0.48498 3.39752 -0.484983 6.54536 1.45494 8.48688L9.03009 16.0683L10.5486 14.5485L2.97349 6.96708ZM11.992 7.94882L13.5477 6.43813L12.0003 4.96393L10.4762 6.48526L11.992 7.94882Z" fill="#64E5ED"/>
<path d="M9.82056 11.8306L11.9904 9.6589L14.1603 11.8306L11.9904 14.0022L9.82056 11.8306Z" fill="white"/>
<defs>
<linearGradient id="paint0_linear_258_140" x1="14.0215" y1="6.20943" x2="3.35691" y2="28.828" gradientUnits="userSpaceOnUse">
<stop offset="0.0561148" stop-color="#64E5ED"/>
<stop offset="1" stop-color="#2B6067"/>
</linearGradient>
</defs>
</svg>
